<?xml version="1.0" encoding="utf-8"?>
<!-- Generator: Adobe Illustrator 23.0.2, SVG Export Plug-In . SVG Version: 6.00 Build 0)  -->
<svg version="1.1" id="bfea2134-9924-4ddb-abfc-914d3548447a"
	 xmlns="http://www.w3.org/2000/svg" xmlns:xlink="http://www.w3.org/1999/xlink" x="0px" y="0px" viewBox="0 0 904.9 710"
	 style="enable-background:new 0 0 904.9 710;" xml:space="preserve">
<style type="text/css">
	.st0{fill:#D0CDE1;}
	.st1{fill:#A0616A;}
	.st2{opacity:0.1;enable-background:new    ;}
	.st3{fill:#3F3D56;}
	.st4{fill:#6C63FF;}
	.st5{fill:#FF6584;}
	.st6{fill:#2F2E41;}
	.st7{fill:#575A89;}
	.st8{fill:#FFB8B8;}
	.st9{opacity:0.2;enable-background:new    ;}
</style>
<title>hot_beverage</title>
<g id="grass">
	<path class="st0" d="M858.4,667.2l39.2-55.1l-39.2,61.1l-0.1,6.3c-2.8-0.1-5.5-0.2-8.2-0.4c0-1.4,4.1-80.2,3.9-81.7
		c0.2-0.1,0.4-7.5,0.5-7.8l-39.7-61l39.8,55.3l0.1,1.6l3-61.2l-34-63.1l34.4,52.3c0-0.8,2.9-126.6,2.9-127.3
		c0,0.4-0.2,100.1-0.2,100.5l33.6-39.8l-33.7,48.4l-0.7,54.8l31.3-52.7c-39.2,76.9-30.4,50-31.8,91.2l45.4-73.4l-45.6,84
		L858.4,667.2z"/>
</g>
<ellipse id="tear" class="st0" cx="449.5" cy="689" rx="449.5" ry="21"/>
<g id="drink">
	<path class="st1" d="M512.2,7.6v319c0,9.6-7.8,17.4-17.4,17.4c-9.6,0-17.4-7.8-17.4-17.4V7.6c0-9.6,7.8-2.2,17.4-2.2
		c4.8,0,4.5-5.3,7.6-2.2C505.6,6.4,512.2,2.8,512.2,7.6z"/>
	<rect x="477.4" y="15.8" class="st2" width="34.8" height="13.1"/>
	<rect x="477.4" y="57.2" class="st2" width="34.8" height="13.1"/>
	<rect x="477.4" y="98.5" class="st2" width="34.8" height="13.1"/>
	<rect x="477.4" y="139.9" class="st2" width="34.8" height="13.1"/>
	<rect x="477.4" y="181.3" class="st2" width="34.8" height="13.1"/>
	<rect x="477.4" y="222.7" class="st2" width="34.8" height="13.1"/>
	<rect x="477.4" y="264" class="st2" width="34.8" height="13.1"/>
	<rect x="477.4" y="305.4" class="st2" width="34.8" height="13.1"/>
	<ellipse class="st1" cx="494.8" cy="5.4" rx="17.4" ry="5.4"/>
	<ellipse class="st2" cx="494.8" cy="5.4" rx="17.4" ry="5.4"/>
	<path class="st1" d="M675.5,75.3l-201.9,247c-6.1,7.5-17.1,8.6-24.5,2.5s-8.6-17.1-2.5-24.5l201.9-247c6.1-7.5,7.4,3.2,14.9,9.3
		c3.7,3,6.8-1.3,7.3,3.1C671.1,70.2,678.5,71.6,675.5,75.3z"/>
	
		<rect x="646.2" y="58.3" transform="matrix(0.6328 -0.7743 0.7743 0.6328 181.0631 533.2017)" class="st2" width="13.1" height="34.8"/>
	
		<rect x="620" y="90.3" transform="matrix(0.6328 -0.7743 0.7743 0.6328 146.6393 524.6939)" class="st2" width="13.1" height="34.8"/>
	
		<rect x="593.8" y="122.4" transform="matrix(0.6328 -0.7743 0.7743 0.6328 112.2155 516.1862)" class="st2" width="13.1" height="34.8"/>
	
		<rect x="567.6" y="154.4" transform="matrix(0.6328 -0.7743 0.7743 0.6328 77.7918 507.6783)" class="st2" width="13.1" height="34.8"/>
	
		<rect x="541.4" y="186.4" transform="matrix(0.6328 -0.7743 0.7743 0.6328 43.3679 499.1706)" class="st2" width="13.1" height="34.8"/>
	
		<rect x="515.2" y="218.5" transform="matrix(0.6328 -0.7743 0.7743 0.6328 8.9442 490.6628)" class="st2" width="13.1" height="34.8"/>
	
		<rect x="489.1" y="250.5" transform="matrix(0.6328 -0.7743 0.7743 0.6328 -25.4781 482.1552)" class="st2" width="13.1" height="34.8"/>
	
		<rect x="462.9" y="282.6" transform="matrix(0.6328 -0.7743 0.7743 0.6328 -59.9034 473.6472)" class="st2" width="13.1" height="34.8"/>
	
		<ellipse transform="matrix(0.6328 -0.7743 0.7743 0.6328 195.1044 536.672)" class="st1" cx="663.4" cy="62.6" rx="5.4" ry="17.4"/>
	
		<ellipse transform="matrix(0.6328 -0.7743 0.7743 0.6328 195.1044 536.672)" class="st2" cx="663.4" cy="62.6" rx="5.4" ry="17.4"/>
	<path class="st3" d="M673.8,371.3h-46.6l0.3-8.7l2-51.5l1-25.6H305.9l0.5,13.1l1.3,34.2l2.5,64.8l1.7,43.2l2.2,55.8l1.9,47.7
		l0.5,13.7l0,0.2l0.3,6.8l0.7,17.1l0.1,1.9l0.5,11.6l0.1,2.1l0.7,16.9l0.6,15.2l0.2,5.2l0.1,2.4l0.1,2.3c0,7.8,1.5,15.6,4.5,22.8
		c0.8,1.9,1.7,3.8,2.6,5.6c7.2,13.4,19.1,23.6,33.5,28.6c1.9,0.7,3.8,1.2,5.8,1.7c4.6,1.1,9.2,1.6,13.9,1.6h176.3
		c8.9,0,17.6-1.9,25.7-5.7c8.9-4.2,16.7-10.6,22.6-18.5c2.5-3.4,4.7-7,6.4-10.8c0.1-0.3,0.3-0.6,0.4-0.9c3-6.7,4.7-14,5.1-21.3
		c0.1-1,0.1-2.1,0.1-3.2l0.6-14.5l0.7-17.8l0.1-1.8l0.7-18.5h55c40.6,0,73.5-33,73.6-73.6v-68.4
		C747.4,404.3,714.4,371.3,673.8,371.3z M703.9,513.3c0,16.6-13.5,30-30,30h-53.3l0-0.2l0.5-12.9l0.4-9.8l2.2-55.2l2-50.3h48.3
		c16.6,0,30,13.5,30,30L703.9,513.3z"/>
	<circle class="st0" cx="384" cy="50.5" r="35.2"/>
	<circle class="st0" cx="406.1" cy="120.9" r="48.4"/>
	<path class="st4" d="M420.4,66.7l-55.6,17.5c-0.9,0.3-1.3,1.2-1.1,2l1,3.2c0.3,0.9,1.2,1.3,2,1.1c0,0,0,0,0,0l9.5-3l1.3,0.6
		l4.9,45.6l7.8,5.5l-5.3-47.4l35.8,17.7l7.6-3.9l-42.6-21.1L422.3,73c0.9-0.3,1.3-1.2,1.1-2v0l-1-3.2
		C422.1,66.9,421.2,66.4,420.4,66.7z"/>
	<path class="st4" d="M360.5,39.7c0,0,12.1-11.7,11.3-14.3s-8.9-8.5-19.2-5.3c0,0-4-3.8-6,0.8s3.5,5.7,3.5,5.7s-2.7,11,7.3,14.1
		L360.5,39.7z"/>
	<circle class="st3" cx="369.3" cy="47.8" r="2.8"/>
	<circle class="st3" cx="394.4" cy="39.9" r="2.8"/>
	<rect x="383.5" y="49.3" transform="matrix(0.9539 -0.3 0.3 0.9539 0.6023 118.4585)" class="st5" width="5.2" height="16"/>
	<circle class="st3" cx="401.8" cy="104" r="2.8"/>
	<circle class="st3" cx="404.9" cy="113.9" r="2.8"/>
	<circle class="st3" cx="408" cy="123.8" r="2.8"/>
	<path class="st3" d="M390.3,70.5c-4.5,1.4-9.2,1.6-13.8,0.6l0.2-0.9c9,2,18.4-1,24.7-7.8l0.7,0.7C398.7,66.5,394.7,69,390.3,70.5z"
		/>
	<circle class="st5" cx="404.1" cy="45.7" r="2.3"/>
	<circle class="st5" cx="364.7" cy="58.1" r="2.3"/>
	
		<ellipse transform="matrix(0.1602 -0.9871 0.9871 0.1602 22.0099 854.6166)" class="st0" cx="513.2" cy="414.4" rx="5.5" ry="5.5"/>
	<circle class="st0" cx="530.7" cy="505.8" r="5.5"/>
	<circle class="st0" cx="421.8" cy="528.7" r="5.5"/>
	<circle class="st0" cx="477.3" cy="633.2" r="5.5"/>
	<circle class="st0" cx="353.2" cy="549.4" r="5.5"/>
	<circle class="st0" cx="348.8" cy="442.7" r="5.5"/>
	<circle class="st0" cx="578.6" cy="400.2" r="5.5"/>
	<circle class="st0" cx="405.4" cy="627.8" r="5.5"/>
	<circle class="st0" cx="378.2" cy="375.2" r="7.5"/>
	<circle class="st0" cx="452.3" cy="453.6" r="7.5"/>
	<circle class="st0" cx="548.1" cy="611.5" r="7.5"/>
	<ellipse class="st1" cx="468.2" cy="285.5" rx="162.7" ry="19.7"/>
	<path class="st0" d="M472.2,81.2c0,0,5,39.1-43.4,52.2s-60.8,41.5-60.8,41.5s-51.7,14.2-20.1,46.3c0,0-73.4,50.7-1.7,71.6
		s265.5,6.8,257.4-32.8c0,0,10.1-18.4-13.3-22.1c0,0,32.5-44.4-49.6-70.1c0,0,13.4-13.9-22.4-9.9C518.4,157.9,540.7,67.3,472.2,81.2
		z"/>
	<path class="st1" d="M367.2,177.2l-0.1-3.2c57.5-2.4,89-20.3,105.4-34.9c17.7-15.8,21.9-31.3,21.9-31.4l3.1,0.8
		c-0.2,0.7-4.4,16.4-22.7,32.8C458,156.3,425.8,174.8,367.2,177.2z"/>
	<path class="st1" d="M347.4,223.5l-0.7-3.1c0.2-0.1,25.7-5.8,95.8-20c48-9.7,59.5-19.7,62.1-24.8c0.5-0.8,0.7-1.9,0.6-2.9l2.9-1.3
		c0.1,0.2,1,2.4-0.6,5.6c-3.5,6.8-17.4,17-64.3,26.5C373.1,217.6,347.7,223.4,347.4,223.5z"/>
	<path class="st1" d="M379.2,236.5c-0.3,0-0.5,0-0.6,0l0-3.2c1.1,0,115.4,0.2,150.6-37.7c7.5-8,10.9-17.3,10.1-27.7l3.1-0.2
		c0.9,11.2-2.8,21.3-10.9,30C496.4,235.5,389.5,236.5,379.2,236.5z"/>
	<path class="st1" d="M513.1,275.2c-0.1,0-0.2,0-0.2,0l0-3.2c0.5,0,55.1,0.4,76.1-34.9l2.7,1.6C570.5,274.6,516.6,275.2,513.1,275.2
		z"/>
	<path class="st0" d="M479.9,79c0,0,5,39.1-43.4,52.2s-60.8,41.5-60.8,41.5S324,187,355.6,219.1c0,0-73.4,50.7-1.7,71.6
		s265.5,6.8,257.4-32.8c0,0,10.1-18.4-13.3-22.1c0,0,32.5-44.4-49.6-70.1c0,0,13.4-13.9-22.4-9.9C526,155.8,548.3,65.1,479.9,79z"/>
	<path class="st1" d="M374.8,175l-0.1-3.2c57.5-2.4,89-20.3,105.4-34.9c17.7-15.8,21.9-31.3,21.9-31.4l3.1,0.8
		c-0.2,0.7-4.4,16.4-22.7,32.8C465.7,154.2,433.4,172.6,374.8,175z"/>
	<path class="st1" d="M355.1,221.3l-0.7-3.1c0.2-0.1,25.7-5.8,95.8-20c48-9.7,59.5-19.7,62.1-24.8c0.5-0.8,0.7-1.9,0.6-2.9l2.9-1.3
		c0.1,0.2,1,2.4-0.6,5.6c-3.5,6.8-17.4,17-64.3,26.5C380.7,215.5,355.3,221.2,355.1,221.3z"/>
	<path class="st1" d="M386.8,234.3c-0.3,0-0.5,0-0.6,0l0-3.2c1.1,0,115.4,0.2,150.6-37.7c7.5-8,10.9-17.3,10.1-27.7l3.1-0.2
		c0.9,11.2-2.8,21.3-10.9,30C504,233.3,397.2,234.3,386.8,234.3z"/>
	<path class="st1" d="M520.7,273c-0.1,0-0.2,0-0.2,0l0-3.2c0.5,0,55.1,0.4,76.1-34.9l2.7,1.6C578.1,272.4,524.2,273,520.7,273z"/>
</g>
<g id="girl">
	<circle class="st6" cx="119.1" cy="286.2" r="17"/>
	<path class="st6" d="M136,279.2l-10.6-2.6c-15.1,0-27.4-12.3-27.4-27.4c0-1.8,0.2-3.7,0.5-5.5l0,0c0-19.8,16-35.8,35.8-35.8h0
		c19.8,0,35.8,16,35.8,35.8l0,0c4.3,15.1-4.4,30.9-19.5,35.2C145.9,280.3,140.8,280.4,136,279.2z"/>
	<polygon class="st7" points="67.6,388.2 93.9,350.8 108.2,377.3 91.9,396.3 	"/>
	<path class="st7" d="M81.3,384.4c0,0-8.2-3.4-12.9,2.7s-12.9,19-10.2,21.1s11.6-6.1,11.6-6.1L81.3,384.4z"/>
	<ellipse transform="matrix(0.6233 -0.782 0.782 0.6233 -294.6148 205.5101)" class="st8" cx="66" cy="408.6" rx="11.6" ry="6.1"/>
	<path class="st8" d="M54.8,479c0,0,1.4,43.5,6.1,68.7s-2.7,115.6-2.7,115.6l15,6.8l9.5-10.2c0,0-3.4-18.4,1.4-31.3
		s6.8-68.7,6.8-68.7l8.2-74.8L54.8,479z"/>
	<path class="st8" d="M110.6,491.9l42.8,78.2l38.8,71.4v15l19.7-6.1l-6.8-15.6c0,0-3.4-61.2-27.9-85l-21.1-60.5L110.6,491.9z"/>
	<path class="st6" d="M85.1,386.8h-7.5c0,0-40.8,55.8-38.8,89.8l58.5,23.8l2-4.8c0,0,48.3,8.8,60.5-1.4l-17-87l-1.4-12.2L85.1,386.8
		z"/>
	<path class="st6" d="M66.4,662.6c0,0,9.5-12.2-2-12.9s-11.6,6.8-11.6,6.8l-25.8,17.7c0,0-42.8,15.6-12.2,20.4
		c0,0,12.9,2.7,29.2-3.4c9.8-3.7,20.1-5.7,30.6-6.1c0,0,15-0.7,15-8.2s-7.3-20.4-7.3-20.4S70.4,664.6,66.4,662.6z"/>
	<path class="st6" d="M213.2,645.6c0,0-23.1-4.8-23.8,4.1s0,23.8,0,23.8s5.4,6.8,4.1,11.6s3.4,19.7,19.7,17.7s10.9-25.2,10.9-25.2
		L213.2,651V645.6z"/>
	<circle class="st8" cx="139.1" cy="247.1" r="22.8"/>
	<path class="st8" d="M123.8,259.6l-0.3,39.1l27.9-9.5c0,0-3.4-22.4-2.7-24.5L123.8,259.6z"/>
	<path class="st7" d="M118.7,287.2c0,0,29.2-10.2,32.6-8.8s4.8,8.8,4.8,8.8s16.3-3.4,18.4,7.5s-12.9,58.5-12.9,58.5l-15,27.9
		c0,0,7.5,11.6-5.4,15.6s-59.8-8.8-59.8-8.8s-8.2-9.5,0-9.5c0,0,2.7-8.8,5.4-10.9s-2-5.4,0.7-6.1s2.7-2,2.7-2s-13.6-18.4-1.4-33.3
		s13.9-28.9,20.1-30.9C115,293,118.7,287.2,118.7,287.2z"/>
	
		<ellipse transform="matrix(0.9266 -0.3761 0.3761 0.9266 -156.9176 82.6933)" class="st8" cx="133.3" cy="443.3" rx="11.6" ry="6.1"/>
	<path class="st7" d="M164.3,292.6h9.6c0,0,27.8,67.3,19.7,88.4s-38.1,57.8-38.1,57.8s-9.5,17-16.3,17s-14.3-24.5-14.3-24.5
		l21.8-9.5l25.8-47.6l-12.2-36.7L164.3,292.6z"/>
	<polygon class="st9" points="89.8,358.9 74.9,385.4 77.6,386.8 	"/>
	
		<rect x="69.5" y="456.5" transform="matrix(0.249 -0.9685 0.9685 0.249 -360.7873 449.1297)" class="st9" width="79.3" height="1.4"/>
	<path class="st6" d="M166.7,237.9l-4.1-7.5l-6.1,4.1l0,0c-1.3,1.8-3.3,2.8-5.5,2.7l-21.4-0.4c-1.9,0-3.8-0.9-5.1-2.3l0,0
		c-3.4,1.3-6,4.1-6.9,7.6l-2.6,10v-34h40.8L166.7,237.9z"/>
</g>
</svg>
